WWE Friday Night Smackdown 2013.03.08 HDTV x264- Team XDN
 
http://allthingsd.com/files/2011/06/WWE-Smackdown.jpeg

Format : MPEG-4
Format profile : Base Media
Codec ID : isom
File size : 893 MiB
Duration : 1h 19mn
Overall bit rate mode : Variable
Overall bit rate : 1 576 Kbps

Video
ID : 1
Format : AVC
Format/Info : Advanced Video Codec
Format profile : High@L3.0
Format settings, CABAC : Yes
Format settings, ReFrames : 4 frames
Codec ID : avc1
Codec ID/Info : Advanced Video Coding
Duration : 1h 19mn
Bit rate : 1 400 Kbps
Width : 704 pixels
Height : 400 pixels
Display aspect ratio : 16:9
Frame rate mode : Constant
Frame rate : 29.970 fps
Color space : YUV
Chroma subsampling : 4:2:0
Bit depth : 8 bits
Scan type : Progressive
Bits/(Pixel*Frame) : 0.166
Stream size : 794 MiB (89%)

Audio
ID : 2
Format : AAC
Format/Info : Advanced Audio Codec
Format profile : LC
Codec ID : 40
Duration : 1h 19mn
Bit rate mode : Variable
Bit rate : 165 Kbps
Maximum bit rate : 192 Kbps
Channel(s) : 2 channels
Channel positions : Front: L R
Sampling rate : 48.0 KHz
Compression mode : Lossy
Delay relative to video : 67ms
Stream size : 93.7 MiB (10%)
 
http://img543.imageshack.us/img543/107/vlcsnap2013030818h01m33.png 
http://img692.imageshack.us/img692/726/vlcsnap2013030818h01m20.png 
http://img826.imageshack.us/img826/3292/vlcsnap2013030818h01m27.png 
http://img6.imageshack.us/img6/7379/vlcsnap2013030818h01m48.png 
http://img59.imageshack.us/img59/8701/vlcsnap2013030818h01m14.png 
http://img202.imageshack.us/img202/9007/vlcsnap2013030818h01m56.png